<?xml version="1.0" encoding="utf-8"?>
<!-- Generator: Adobe Illustrator 25.0.1, SVG Export Plug-In . SVG Version: 6.00 Build 0)  -->
<svg version="1.1" id="Layer_1" xmlns="http://www.w3.org/2000/svg" xmlns:xlink="http://www.w3.org/1999/xlink" x="0px" y="0px"
	 viewBox="0 0 150 48" style="enable-background:new 0 0 150 48;" xml:space="preserve">
<style type="text/css">
	.st0{fill-rule:evenodd;clip-rule:evenodd;fill:#0075FF;}
	.st1{fill-rule:evenodd;clip-rule:evenodd;fill:#00448F;}
	.st2{fill-rule:evenodd;clip-rule:evenodd;fill:#1B1D24;}
</style>
<path class="st0" d="M140.1,31.3V18.9L124.5,7.7l0,12.3L140.1,31.3z"/>
<path class="st1" d="M140.1,39l9.4-7v-7.7l-9.4,7V39z"/>
<path class="st2" d="M11.2,39.1c0.4-0.2,0.8-0.5,1.2-0.8c0.4-0.3,0.7-0.6,0.9-1l-1.8-1.7c-0.2,0.2-0.4,0.4-0.6,0.6
	c-0.2,0.2-0.4,0.4-0.7,0.5C10,37,9.7,37.1,9.4,37.2c-0.3,0.1-0.7,0.1-1.1,0.1c-0.5,0-1-0.1-1.4-0.3c-0.4-0.2-0.8-0.4-1.1-0.8
	c-0.3-0.3-0.5-0.7-0.7-1.2c-0.2-0.4-0.2-0.9-0.2-1.5c0-0.5,0.1-1,0.2-1.4c0.2-0.5,0.4-0.9,0.7-1.2c0.3-0.3,0.7-0.6,1.1-0.8
	c0.4-0.2,0.9-0.3,1.5-0.3c0.7,0,1.3,0.1,1.8,0.5c0.5,0.3,0.9,0.7,1.3,1.2l1.8-1.8c-0.6-0.8-1.2-1.3-2.1-1.7
	c-0.8-0.4-1.8-0.6-2.9-0.6c-0.9,0-1.8,0.2-2.5,0.5c-0.8,0.3-1.4,0.8-2,1.3c-0.5,0.6-1,1.2-1.3,2C2.2,32,2,32.8,2,33.7v0.1
	c0,0.9,0.2,1.7,0.4,2.4c0.3,0.7,0.7,1.4,1.3,1.9c0.5,0.5,1.2,1,1.9,1.3c0.8,0.3,1.6,0.5,2.5,0.5c0.6,0,1.1-0.1,1.6-0.2
	C10.3,39.5,10.7,39.4,11.2,39.1z"/>
<path class="st2" d="M15.1,38.5c0.4,0.4,0.9,0.7,1.4,1c0.6,0.2,1.2,0.4,1.8,0.4c0.7,0,1.3-0.1,1.8-0.4c0.6-0.2,1-0.6,1.4-1
	c0.4-0.4,0.7-0.9,0.9-1.4c0.2-0.5,0.3-1.1,0.3-1.7c0-0.6-0.1-1.2-0.3-1.7c-0.2-0.5-0.5-1-0.9-1.4c-0.4-0.4-0.9-0.7-1.4-0.9
	C19.7,31.1,19,31,18.4,31c-0.7,0-1.3,0.1-1.8,0.3c-0.6,0.2-1,0.5-1.4,0.9c-0.4,0.4-0.7,0.9-0.9,1.4c-0.2,0.5-0.3,1.1-0.3,1.7
	c0,0.6,0.1,1.2,0.3,1.7C14.4,37.7,14.7,38.1,15.1,38.5z M16.5,34.6c0.1-0.3,0.2-0.5,0.4-0.7c0.2-0.2,0.4-0.4,0.6-0.5
	c0.3-0.1,0.5-0.2,0.9-0.2c0.3,0,0.6,0.1,0.9,0.2c0.3,0.1,0.5,0.3,0.6,0.5c0.2,0.2,0.3,0.4,0.4,0.7c0.1,0.3,0.1,0.5,0.1,0.8
	c0,0.3,0,0.6-0.1,0.8c-0.1,0.3-0.2,0.5-0.4,0.7c-0.2,0.2-0.4,0.4-0.6,0.5c-0.3,0.1-0.5,0.2-0.9,0.2c-0.3,0-0.6-0.1-0.9-0.2
	c-0.3-0.1-0.5-0.3-0.6-0.5c-0.2-0.2-0.3-0.5-0.4-0.7c-0.1-0.3-0.1-0.5-0.1-0.8C16.3,35.1,16.4,34.8,16.5,34.6z"/>
<path class="st2" d="M37.7,39.6v-5.1c0-1-0.3-1.9-0.9-2.5c-0.6-0.6-1.4-0.9-2.5-0.9c-0.5,0-1.1,0.1-1.6,0.3
	c-0.5,0.2-0.9,0.5-1.3,0.8c-0.1-0.1-0.2-0.3-0.4-0.4c-0.1-0.1-0.3-0.3-0.5-0.4c-0.2-0.1-0.4-0.2-0.7-0.3c-0.3-0.1-0.6-0.1-0.9-0.1
	c-0.5,0-1,0.1-1.4,0.3c-0.4,0.2-0.7,0.5-1,0.8l-0.1-0.9h-2.5v8.3h2.6v-4.5c0-0.5,0.2-1,0.5-1.3c0.3-0.3,0.7-0.5,1.2-0.5
	c0.4,0,0.8,0.1,1,0.4c0.2,0.3,0.3,0.7,0.3,1.2v4.7h2.5v-4.5c0-0.5,0.1-1,0.5-1.3c0.3-0.3,0.7-0.5,1.2-0.5c0.4,0,0.8,0.1,1,0.4
	c0.2,0.3,0.3,0.7,0.3,1.2v4.7H37.7z"/>
<path class="st2" d="M53,39.6v-5.1c0-1-0.3-1.9-0.9-2.5c-0.6-0.6-1.4-0.9-2.5-0.9c-0.5,0-1.1,0.1-1.6,0.3c-0.5,0.2-0.9,0.5-1.3,0.8
	c-0.1-0.1-0.2-0.3-0.4-0.4c-0.1-0.1-0.3-0.3-0.5-0.4c-0.2-0.1-0.4-0.2-0.7-0.3c-0.3-0.1-0.6-0.1-0.9-0.1c-0.5,0-1,0.1-1.4,0.3
	c-0.4,0.2-0.7,0.5-1,0.8l-0.1-0.9h-2.5v8.3h2.6v-4.5c0-0.5,0.2-1,0.5-1.3c0.3-0.3,0.7-0.5,1.2-0.5c0.4,0,0.8,0.1,1,0.4
	c0.2,0.3,0.3,0.7,0.3,1.2v4.7h2.5v-4.5c0-0.5,0.1-1,0.5-1.3c0.3-0.3,0.7-0.5,1.2-0.5c0.4,0,0.8,0.1,1,0.4c0.2,0.3,0.3,0.7,0.3,1.2
	v4.7H53z"/>
<path class="st2" d="M62.7,35.7c0-0.7-0.1-1.3-0.3-1.9c-0.2-0.6-0.4-1.1-0.8-1.5c-0.4-0.4-0.8-0.7-1.3-1c-0.5-0.2-1.1-0.4-1.8-0.4
	c-0.7,0-1.3,0.1-1.8,0.4c-0.5,0.2-1,0.6-1.4,1c-0.4,0.4-0.7,0.9-0.9,1.4c-0.2,0.5-0.3,1.1-0.3,1.7c0,0.7,0.1,1.3,0.3,1.8
	c0.2,0.5,0.5,1,0.9,1.4c0.4,0.4,0.9,0.7,1.5,0.9c0.6,0.2,1.2,0.3,1.9,0.3c0.5,0,1-0.1,1.4-0.2c0.4-0.1,0.8-0.2,1.1-0.3
	c0.3-0.1,0.6-0.3,0.7-0.4c0.2-0.1,0.3-0.2,0.4-0.3L61.5,37c-0.2,0.1-0.5,0.3-0.9,0.5c-0.4,0.2-1,0.3-1.6,0.3c-0.7,0-1.2-0.2-1.6-0.5
	c-0.4-0.3-0.6-0.7-0.6-1.2h6V35.7z M56.7,34.5c0-0.2,0-0.4,0.1-0.5c0.1-0.2,0.2-0.4,0.3-0.5c0.1-0.2,0.3-0.3,0.6-0.4
	C58,33,58.2,33,58.5,33c0.3,0,0.6,0.1,0.8,0.2c0.2,0.1,0.4,0.2,0.5,0.4c0.1,0.2,0.3,0.3,0.3,0.5c0.1,0.2,0.1,0.4,0.1,0.5H56.7z"/>
<path class="st2" d="M67.4,31.5c-0.4,0.3-0.7,0.5-0.9,0.8l-0.1-1h-2.5v8.3h2.6v-4.1c0-0.7,0.2-1.2,0.6-1.5c0.4-0.4,0.9-0.5,1.5-0.5
	c0.4,0,0.7,0,0.9,0.1l0.4-2.2c-0.2-0.1-0.3-0.1-0.5-0.1c-0.2,0-0.4,0-0.6,0C68.3,31.1,67.8,31.2,67.4,31.5z"/>
<path class="st2" d="M73.3,33.9c0.2-0.2,0.4-0.4,0.6-0.5c0.2-0.1,0.5-0.2,0.8-0.2c0.5,0,0.8,0.1,1.1,0.2c0.3,0.2,0.5,0.4,0.7,0.6
	l1.6-1.7c-0.4-0.4-0.9-0.7-1.4-1c-0.6-0.2-1.2-0.4-2-0.4c-0.7,0-1.3,0.1-1.8,0.3c-0.6,0.2-1,0.5-1.4,0.9c-0.4,0.4-0.7,0.9-0.9,1.4
	c-0.2,0.5-0.3,1.1-0.3,1.7c0,0.6,0.1,1.2,0.3,1.8c0.2,0.5,0.5,1,0.9,1.4c0.4,0.4,0.9,0.7,1.4,0.9c0.6,0.2,1.2,0.3,1.9,0.3
	c0.8,0,1.4-0.1,2-0.4c0.6-0.3,1-0.6,1.4-1l-1.5-1.7c-0.2,0.2-0.4,0.4-0.7,0.6c-0.3,0.2-0.7,0.3-1.1,0.3c-0.3,0-0.6-0.1-0.8-0.2
	c-0.2-0.1-0.5-0.3-0.6-0.5c-0.2-0.2-0.3-0.4-0.4-0.7c-0.1-0.3-0.1-0.5-0.1-0.8c0-0.3,0-0.6,0.1-0.8C73,34.3,73.1,34.1,73.3,33.9z"/>
<path class="st2" d="M86.9,35.7c0-0.7-0.1-1.3-0.3-1.9c-0.2-0.6-0.4-1.1-0.8-1.5c-0.4-0.4-0.8-0.7-1.3-1C84,31.1,83.5,31,82.8,31
	c-0.7,0-1.3,0.1-1.8,0.4c-0.5,0.2-1,0.6-1.4,1c-0.4,0.4-0.7,0.9-0.9,1.4c-0.2,0.5-0.3,1.1-0.3,1.7c0,0.7,0.1,1.3,0.3,1.8
	c0.2,0.5,0.5,1,0.9,1.4c0.4,0.4,0.9,0.7,1.5,0.9c0.6,0.2,1.2,0.3,1.9,0.3c0.5,0,1-0.1,1.4-0.2c0.4-0.1,0.8-0.2,1.1-0.3
	c0.3-0.1,0.6-0.3,0.7-0.4c0.2-0.1,0.3-0.2,0.4-0.3L85.7,37c-0.2,0.1-0.5,0.3-0.9,0.5c-0.4,0.2-1,0.3-1.6,0.3c-0.7,0-1.2-0.2-1.6-0.5
	c-0.4-0.3-0.6-0.7-0.6-1.2h6V35.7z M80.9,34.5c0-0.2,0-0.4,0.1-0.5c0.1-0.2,0.2-0.4,0.3-0.5c0.1-0.2,0.3-0.3,0.6-0.4
	c0.2-0.1,0.5-0.2,0.8-0.2c0.3,0,0.6,0.1,0.8,0.2c0.2,0.1,0.4,0.2,0.5,0.4c0.1,0.2,0.3,0.3,0.3,0.5c0.1,0.2,0.1,0.4,0.1,0.5H80.9z"/>
<path class="st2" d="M99.1,39.6V27.7h-2.7v4.5h-5.2v-4.5h-2.7v11.8h2.7v-4.9h5.2v4.9H99.1z"/>
<path class="st2" d="M101,31.3v5.2c0,1.1,0.3,1.9,0.8,2.5c0.6,0.6,1.3,0.8,2.3,0.8c0.5,0,1-0.1,1.4-0.3c0.4-0.2,0.8-0.5,1.1-0.8
	l0.1,0.9h2.5v-8.3h-2.6v4.5c0,0.2,0,0.5-0.1,0.7c-0.1,0.2-0.2,0.4-0.3,0.6c-0.1,0.2-0.3,0.3-0.5,0.4c-0.2,0.1-0.4,0.1-0.7,0.1
	c-0.5,0-0.8-0.1-1-0.4c-0.2-0.3-0.4-0.6-0.4-1.1v-4.8H101z"/>
<path class="st2" d="M110.8,27.7v11.5c0.4,0.1,0.9,0.3,1.6,0.4c0.6,0.1,1.3,0.2,2,0.2c0.8,0,1.5-0.1,2.1-0.3
	c0.6-0.2,1.1-0.5,1.5-0.9c0.4-0.4,0.7-0.9,1-1.5c0.2-0.6,0.3-1.2,0.3-1.9c0-0.6-0.1-1.1-0.3-1.6c-0.2-0.5-0.4-0.9-0.7-1.3
	c-0.3-0.4-0.7-0.7-1.2-0.9c-0.5-0.2-1-0.3-1.6-0.3c-0.4,0-0.8,0.1-1.2,0.2c-0.4,0.1-0.7,0.3-1,0.6v-4.1H110.8z M113.8,33.7
	c0.3-0.3,0.7-0.5,1.3-0.5c0.3,0,0.6,0.1,0.8,0.2c0.2,0.1,0.4,0.3,0.5,0.5c0.1,0.2,0.2,0.4,0.3,0.7c0.1,0.2,0.1,0.5,0.1,0.8
	c0,0.7-0.2,1.3-0.6,1.7c-0.4,0.4-0.9,0.7-1.6,0.7c-0.3,0-0.6,0-0.7,0c-0.2,0-0.3-0.1-0.5-0.1V35C113.4,34.5,113.5,34,113.8,33.7z"/>
</svg>
